<svg xmlns="http://www.w3.org/2000/svg" version="1.1" xmlns:xlink="http://www.w3.org/1999/xlink" xmlns:svgjs="http://svgjs.com/svgjs" width="271" height="273"><svg width="271" height="273" viewBox="0 0 271 273" fill="none" xmlns="http://www.w3.org/2000/svg">
<path d="M136.4 36.7524C125.037 39.3265 115.647 45.3757 109.772 53.8704C107.457 57.2596 104.241 64.553 103.083 69.0148C101.196 76.1366 101.582 85.7896 104.026 92.9972C105.827 98.4458 110.33 105.739 114.103 109.3C117.19 112.217 121.307 115.478 121.907 115.478C122.507 115.478 139.831 107.884 143.047 106.211C145.405 104.967 147.678 103.036 149.436 100.72C150.637 99.1322 151.237 98.0596 162.386 77.5095C167.017 69.0148 171.905 60.1341 173.234 57.7745C177.479 50.3953 178.809 47.5208 178.809 45.676C178.809 43.2735 177.222 40.442 175.035 38.8975C173.406 37.782 172.805 37.6104 170.275 37.6104C166.931 37.6104 165.13 38.5543 163.372 41.2142C161.485 44.0887 136.786 90.1227 132.498 98.7461C131.512 100.762 130.612 102.479 130.526 102.564C130.183 102.908 125.166 97.7164 123.279 95.0994C119.592 89.9082 117.919 84.8458 117.919 78.582C117.919 73.9486 118.691 70.8167 121.135 65.8401C123.451 61.1637 126.667 57.6458 131.04 55.0716C134.985 52.7549 138.201 51.8969 143.862 51.5965L148.578 51.3391L152.094 44.9038C154.067 41.3429 155.611 38.2969 155.525 38.0824C154.967 36.4521 141.76 35.5082 136.4 36.7524Z" fill="#FFF6E0"></path>
<path d="M97.5514 47.864C82.0718 55.8868 75.2111 60.7776 65.606 70.688C51.2413 85.4893 41.722 103.251 37.8199 122.557C36.9195 127.062 36.1476 135.213 36.6622 134.698C36.8337 134.527 37.6055 132.939 38.4202 131.137C41.4218 124.187 50.3408 114.792 58.1878 110.287C59.6457 109.472 60.0745 108.914 60.4604 107.412C61.8326 101.921 68.479 90.8092 74.2677 84.288C79.1989 78.7965 83.8728 74.8495 91.6769 69.6155C94.5498 67.6849 95.6218 66.741 95.6218 66.0975C95.6218 63.223 100.038 53.0123 103.597 47.6495C104.627 46.0621 105.484 44.6893 105.484 44.5177C105.484 43.8741 103.983 44.5177 97.5514 47.864Z" fill="#FFF6E0"></path>
<path d="M191.244 51.5536C191.244 51.7682 192.273 54.042 193.559 56.5732C196.261 62.0218 198.276 68.071 199.134 73.4338L199.777 77.2521L204.322 81.6281C217.1 93.941 225.29 110.716 227.048 128.048C227.306 130.58 227.22 131.051 226.577 131.523C225.89 132.038 226.019 132.339 228.42 135.041C231.293 138.302 234.724 143.279 236.353 146.582C238.068 150.014 240.427 156.621 240.984 159.667C241.284 161.212 241.67 162.627 241.842 162.799C242.313 163.314 243.514 154.776 244.071 147.14C245.401 129.078 241.284 109.429 232.837 93.2975C224.518 77.3808 212.083 63.9524 197.118 54.5997C191.672 51.2104 191.244 50.9959 191.244 51.5536Z" fill="#FFF6E0"></path>
<path d="M178.423 63.223C176.193 67.2988 174.392 71.1171 174.392 71.7177C174.392 72.3183 174.606 73.8199 174.864 75.1069C175.593 78.3246 175.507 84.3738 174.735 87.377C173.534 92.1391 170.833 96.9442 167.488 100.291C164.187 103.594 161.442 105.096 149.865 110.115C144.247 112.561 138.759 114.963 121.778 122.471C99.4381 132.338 94.2497 134.612 89.7044 136.543C80.7425 140.318 78.5557 142.421 73.5816 152.031C71.9522 155.162 69.165 160.525 67.3212 163.957C54.8432 187.339 52.3133 192.273 52.056 193.86C51.1555 199.566 57.6304 204.757 62.8617 202.441C66.2063 200.982 66.7637 200.296 71.9093 190.771C73.5816 187.682 75.5112 184.121 76.2402 182.834C76.9262 181.547 79.7134 176.313 82.4149 171.251C89.1041 158.766 90.2618 156.836 92.5345 154.691C95.0644 152.245 97.8516 150.829 118.134 141.863C172.677 117.666 172.334 117.838 178.465 111.788C191.158 99.2609 195.189 78.4533 187.813 63.3517C186.141 59.9625 183.397 55.8439 182.753 55.8439C182.582 55.8439 180.652 59.1902 178.423 63.223Z" fill="#FFF6E0"></path>
<path d="M79.5419 112.132C72.038 112.818 65.7346 115.049 59.4742 119.21C43.4372 129.85 36.0618 149.928 41.2074 168.762C42.1508 172.238 45.7098 179.788 47.2963 181.676L48.3255 182.92L50.4694 179.316C51.6701 177.386 53.7283 173.739 55.0147 171.294L57.4588 166.875L56.5155 164.215C55.272 160.654 55.1862 152.545 56.344 148.727C59.3884 138.903 66.4207 131.867 76.1544 128.949C79.156 128.005 87.9463 127.877 90.7335 128.692C92.3201 129.164 92.706 129.078 95.8791 127.748C99.5667 126.161 110.715 121.055 111.016 120.798C111.273 120.583 109.3 118.481 108.829 118.481C108.614 118.481 107.757 118.052 106.856 117.494C104.155 115.778 97.7229 113.419 93.9066 112.732C89.2327 111.874 84.4302 111.66 79.5419 112.132Z" fill="#FFF6E0"></path>
<path d="M183.139 126.203C178.851 126.804 174.906 128.134 167.231 131.652C163.329 133.411 156.511 136.457 152.009 138.431C126.109 149.757 95.8791 163.571 94.9358 164.558C94.4212 165.073 93.6494 166.403 89.7902 173.61C88.1179 176.785 87.6033 178.115 88.0321 178.115C91.7627 178.115 111.745 173.911 113.674 172.709C114.703 172.109 113.803 173.653 111.402 176.914C106.942 182.749 101.539 186.438 94.6785 188.283C91.8913 189.012 84.9019 189.313 82.5006 188.755L81.1285 188.455L78.1269 193.903C74.5679 200.424 73.1957 203.041 73.4101 203.213C73.4959 203.256 74.9967 203.685 76.7547 204.114C79.3275 204.757 81.4286 204.929 87.4747 204.886C94.3354 204.843 95.3217 204.757 98.8378 203.685C116.676 198.322 128.296 186.095 132.113 168.677C132.67 166.188 133.313 164.043 133.57 163.872C133.956 163.571 135.843 162.713 147.935 157.308C165.301 149.499 175.764 144.952 179.237 143.75C183.097 142.421 183.654 142.335 189.314 142.292C194.503 142.292 195.703 142.421 198.319 143.321C206.337 146.024 212.341 151.258 215.9 158.595C217.658 162.37 218.258 165.116 218.258 169.878C218.215 177.986 215.9 183.478 209.896 189.484C204.108 195.276 197.204 197.85 188.885 197.292C179.966 196.692 172.72 193.174 166.416 186.438C162.9 182.663 161.356 180.26 159.556 175.498C158.269 172.238 156.811 165.244 157.369 165.244C157.712 165.244 164.916 168.891 170.018 171.68C171.691 172.581 179.538 176.699 187.513 180.861C195.446 185.022 202.435 188.712 203.036 189.098L204.108 189.785V185.537C204.108 176.399 200.506 169.363 193.216 164.215C191.801 163.185 186.141 160.096 180.695 157.35L170.833 152.374L166.545 154.39C164.229 155.506 157.583 158.466 151.794 160.997C139.745 166.274 140.56 165.373 141.718 171.551C145.234 190.471 157.369 204.672 175.378 210.807C191.801 216.427 210.111 212.222 221.645 200.21C227.177 194.418 230.607 188.455 232.708 180.904C233.78 176.957 233.909 176.013 233.866 169.32C233.866 162.627 233.78 161.727 232.708 158.166C226.877 139.117 210.754 126.59 191.244 125.989C188.285 125.903 184.64 125.989 183.139 126.203Z" fill="#FFF6E0"></path>
<path d="M68.4361 209.391C68.1359 209.82 74.6108 216.255 78.4699 219.344C89.7473 228.397 106.685 236.162 121.778 239.208C143.347 243.584 167.059 240.195 188.8 229.598C196.604 225.822 208.353 217.414 206.981 216.641C206.637 216.47 205.222 216.684 203.765 217.156C196.604 219.301 187.299 219.43 179.666 217.499L175.635 216.427L172.291 218.1C158.612 224.75 142.618 226.809 127.567 223.806C116.933 221.661 108.228 217.971 98.2804 211.321C97.1655 210.549 96.6509 210.421 95.4932 210.721C90.0046 212.222 80.6568 211.922 74.3106 210.077C70.3657 208.962 68.822 208.747 68.4361 209.391Z" fill="#FFF6E0"></path>
</svg><style>@media (prefers-color-scheme: light) { :root { filter: contrast(1) brightness(0.7); } }
</style></svg>